G75*
G70*
%OFA0B0*%
%FSLAX24Y24*%
%IPPOS*%
%LPD*%
%AMOC8*
5,1,8,0,0,1.08239X$1,22.5*
%
%ADD10R,0.0157X0.0433*%
%ADD11R,0.1200X0.0730*%
%ADD12R,0.0808X0.2245*%
%ADD13C,0.0140*%
%ADD14C,0.0700*%
%ADD15R,0.0671X0.0592*%
%ADD16R,0.0390X0.0430*%
%ADD17R,0.0828X0.2521*%
%ADD18R,0.0240X0.0300*%
%ADD19R,0.0470X0.0352*%
%ADD20R,0.1025X0.1025*%
%ADD21R,0.1182X0.1576*%
%ADD22R,0.0474X0.0631*%
%ADD23C,0.0680*%
%ADD24OC8,0.0700*%
%ADD25R,0.1340X0.0789*%
%ADD26R,0.0330X0.0580*%
%ADD27OC8,0.0560*%
%ADD28C,0.0611*%
%ADD29C,0.0456*%
D10*
X006326Y014815D03*
X006523Y014815D03*
X006720Y014815D03*
X006917Y014815D03*
X007114Y014815D03*
X007114Y016430D03*
X006917Y016430D03*
X006720Y016430D03*
X006523Y016430D03*
X006326Y016430D03*
D11*
X006720Y015622D03*
D12*
X005716Y002122D03*
X007724Y002122D03*
D13*
X008120Y005341D02*
X008190Y005271D01*
X007958Y005271D01*
X007795Y005434D01*
X007795Y005666D01*
X007958Y005829D01*
X008190Y005829D01*
X008353Y005666D01*
X008353Y005434D01*
X008190Y005271D01*
X008146Y005376D01*
X008002Y005376D01*
X007900Y005478D01*
X007900Y005622D01*
X008002Y005724D01*
X008146Y005724D01*
X008248Y005622D01*
X008248Y005478D01*
X008146Y005376D01*
X008103Y005481D01*
X008045Y005481D01*
X008005Y005521D01*
X008005Y005579D01*
X008045Y005619D01*
X008103Y005619D01*
X008143Y005579D01*
X008143Y005521D01*
X008103Y005481D01*
D14*
X007366Y006257D03*
X001720Y009154D03*
D15*
X003720Y013280D03*
X003720Y014028D03*
X003720Y015280D03*
X003720Y016028D03*
X003220Y017280D03*
X003220Y018028D03*
X004220Y018028D03*
X004220Y017280D03*
X002720Y016028D03*
X002720Y015280D03*
X001720Y015280D03*
X001720Y016028D03*
X001220Y017280D03*
X001220Y018028D03*
X002220Y018028D03*
X002220Y017280D03*
X004970Y013871D03*
X004970Y013123D03*
X005939Y013123D03*
X005939Y013871D03*
X007283Y013871D03*
X007283Y013123D03*
X007720Y011528D03*
X007720Y010780D03*
X007720Y009528D03*
X007720Y008780D03*
X006720Y008780D03*
X006720Y009528D03*
D16*
X006850Y008054D03*
X007230Y007254D03*
X007610Y008054D03*
X002610Y014054D03*
X002230Y013254D03*
X001850Y014054D03*
D17*
X003854Y008404D03*
X005586Y008404D03*
D18*
X004104Y005944D03*
X003848Y005944D03*
X003592Y005944D03*
X003336Y005944D03*
X003336Y005363D03*
X003592Y005363D03*
X003848Y005363D03*
X004104Y005363D03*
D19*
X005208Y010780D03*
X005208Y011154D03*
X005208Y011528D03*
X006232Y011528D03*
X006232Y011154D03*
X006232Y010780D03*
D20*
X003586Y011654D03*
X001854Y011654D03*
D21*
X001263Y002122D03*
X004177Y002122D03*
D22*
X004094Y020846D03*
X003720Y021712D03*
X003346Y020846D03*
X005877Y020846D03*
X006251Y021712D03*
X006625Y020846D03*
D23*
X006220Y020172D02*
X006220Y019572D01*
X005220Y019572D02*
X005220Y020172D01*
X004220Y020172D02*
X004220Y019572D01*
X003220Y019572D02*
X003220Y020172D01*
X002220Y020172D02*
X002220Y019572D01*
X001220Y019572D02*
X001220Y020172D01*
X007220Y020172D02*
X007220Y019572D01*
X008220Y019572D02*
X008220Y020172D01*
X008220Y004172D02*
X008220Y003572D01*
X007220Y003572D02*
X007220Y004172D01*
X006220Y004172D02*
X006220Y003572D01*
X005220Y003572D02*
X005220Y004172D01*
X004220Y004172D02*
X004220Y003572D01*
X003220Y003572D02*
X003220Y004172D01*
D24*
X002720Y009154D03*
D25*
X001470Y007256D03*
X001470Y005051D03*
D26*
X001970Y005154D03*
X001970Y007154D03*
D27*
X001470Y007654D03*
X001470Y007654D03*
X001470Y004654D03*
X001470Y004654D03*
D28*
X003220Y002122D03*
X005001Y002716D03*
X006470Y002154D03*
D29*
X006720Y010060D03*
X007095Y010529D03*
X007158Y011529D03*
X007783Y010247D03*
X006345Y011935D03*
X006626Y013497D03*
X005595Y014997D03*
X005595Y015591D03*
X005595Y016185D03*
X004970Y016654D03*
X004345Y016029D03*
X004283Y014091D03*
X005220Y012404D03*
X004595Y010654D03*
X006470Y015622D03*
X006970Y015622D03*
X007345Y017154D03*
X007845Y017497D03*
X007970Y015747D03*
X006814Y017841D03*
X006689Y019122D03*
X005595Y018466D03*
X005595Y017904D03*
X005595Y017310D03*
X005064Y018966D03*
X004220Y018560D03*
X003751Y018966D03*
X002220Y018560D03*
X001720Y018497D03*
X000970Y018779D03*
X000970Y016529D03*
X001095Y012904D03*
X001095Y012404D03*
X004283Y021747D03*
X005658Y021747D03*
X007283Y021279D03*
M02*
