%
M48
M72
T01C0.0236
T02C0.0320
T03C0.0354
T04C0.0400
%
T01
X4595Y10654
X5220Y12404
X4283Y14091
X4345Y16029
X4970Y16654
X5595Y16185
X5595Y15591
X5595Y14997
X6470Y15622
X6970Y15622
X7345Y17154
X7845Y17497
X7970Y15747
X6814Y17841
X6689Y19122
X5595Y18466
X5595Y17904
X5595Y17310
X5064Y18966
X4220Y18560
X3751Y18966
X2220Y18560
X1720Y18497
X970Y18779
X970Y16529
X1095Y12904
X1095Y12404
X4283Y21747
X5658Y21747
X7283Y21279
X6626Y13497
X6345Y11935
X7158Y11529
X7095Y10529
X6720Y10060
X7783Y10247
T02
X1470Y4654
X1470Y4654
X1470Y7654
X1470Y7654
X1720Y9154
X2720Y9154
X7366Y6257
X8074Y5550
T03
X6470Y2154
X5001Y2716
X3220Y2122
T04
X3220Y3872
X4220Y3872
X5220Y3872
X6220Y3872
X7220Y3872
X8220Y3872
X8220Y19872
X7220Y19872
X6220Y19872
X5220Y19872
X4220Y19872
X3220Y19872
X2220Y19872
X1220Y19872
M30
